<svg version="1.1" id="Layer_1" xmlns="http://www.w3.org/2000/svg" xmlns:xlink="http://www.w3.org/1999/xlink" x="0px" y="0px"
	 width="100%" viewBox="0 0 460 100" enable-background="new 0 0 460 100" xml:space="preserve">
<path fill="#FFFFFF" opacity="1.000000" stroke="none" 
	d="
M461.000000,14.000000 
	C461.000000,42.885212 461.000000,71.770424 461.000000,101.000000 
	C453.315887,101.000000 445.626617,101.000000 437.468689,100.538681 
	C437.000000,97.594749 436.843353,95.099754 437.038422,92.632553 
	C437.300629,89.316261 436.272552,87.452568 432.642365,88.008698 
	C428.041504,88.713539 423.447235,87.866699 418.856873,88.050781 
	C417.660980,88.098732 416.512146,88.906639 415.299286,89.101791 
	C414.598267,89.214577 413.812500,88.800621 413.000000,88.608398 
	C413.000000,92.726532 413.000000,96.863266 413.000000,101.000000 
	C412.555542,101.000000 412.111115,101.000000 411.325989,100.571571 
	C409.732239,99.762100 408.445068,98.975273 407.232666,99.077339 
	C403.819000,99.364746 402.046326,98.217842 401.973297,94.616135 
	C401.893097,90.661064 403.947815,89.557205 407.493256,89.969704 
	C408.518250,90.088951 409.585663,89.843956 410.633606,89.765953 
	C409.442596,88.505676 408.144989,88.079445 406.834351,88.034637 
	C403.703094,87.927597 400.560608,88.116402 397.431793,87.978035 
	C388.998138,87.605080 389.000031,87.562012 389.000000,96.028709 
	C389.000000,97.685806 389.000000,99.342903 389.000000,101.000000 
	C389.000000,101.000000 388.500000,101.000000 388.250000,100.540009 
	C387.378937,96.247993 389.311096,92.024506 386.482422,87.858833 
	C384.928894,92.332993 388.786346,98.956573 380.071655,99.024773 
	C379.548553,95.484062 379.039642,92.039528 378.530731,88.594994 
	C378.353821,88.620567 378.176910,88.646141 378.000000,88.671715 
	C378.000000,92.781143 378.000000,96.890572 378.000000,101.000000 
	C377.555542,101.000000 377.111115,101.000000 376.333313,100.538620 
	C375.999817,97.247032 376.193665,94.397224 375.910492,91.595627 
	C375.785278,90.356766 374.735718,88.216049 374.033691,88.186325 
	C367.721252,87.918961 361.392761,88.030128 355.722534,88.030128 
	C356.645844,90.578590 357.491730,92.406723 357.955353,94.327133 
	C358.481934,96.508362 358.666687,98.772118 359.000000,101.000000 
	C356.958344,101.000000 354.916656,101.000000 352.560486,100.608139 
	C355.503876,93.609810 351.300293,91.735878 346.064270,90.340034 
	C348.404083,90.063126 350.743927,89.786209 353.083771,89.509300 
	C353.032501,89.007942 352.981201,88.506577 352.929932,88.005219 
	C346.523865,88.005219 340.114990,87.912666 333.714935,88.108719 
	C332.794250,88.136925 331.144226,89.561615 331.150391,90.329407 
	C331.179108,93.888321 331.672821,97.443489 332.000000,101.000000 
	C331.250000,101.000000 330.500000,101.000000 329.507629,100.598373 
	C332.044128,89.272354 330.940704,87.739281 320.470978,88.033638 
	C320.030975,88.046013 319.598206,88.317337 319.000000,88.524017 
	C319.000000,92.723274 319.000000,96.861633 319.000000,101.000000 
	C318.555542,101.000000 318.111115,101.000000 317.326355,100.574829 
	C316.071045,99.766464 315.148102,99.041252 314.242554,99.062370 
	C311.170288,99.133980 308.666870,99.114761 308.919525,94.775635 
	C309.136108,91.057083 310.575043,89.501640 314.302673,89.950623 
	C315.183899,90.056763 316.139130,89.548912 317.060303,89.323509 
	C317.010925,89.007736 316.961548,88.691971 316.912170,88.376205 
	C313.657593,88.376205 310.403015,88.376205 307.176361,88.376205 
	C307.096252,88.966194 307.016235,89.284912 307.015228,89.603874 
	C307.003326,93.402565 307.003204,97.201286 307.000000,101.000000 
	C303.969391,101.000000 300.938812,101.000000 297.454102,100.590912 
	C296.739807,97.370583 297.287354,95.281052 300.290680,93.855591 
	C303.234833,92.458214 302.372894,90.202477 300.989685,88.524223 
	C298.954712,89.867889 297.316040,91.786186 295.737488,91.737938 
	C294.378754,91.696404 293.088531,89.412163 290.834503,87.205727 
	C291.257965,89.829315 291.029510,92.709190 291.904388,93.096458 
	C295.849976,94.842941 294.942322,98.016838 295.000000,101.000000 
	C292.299988,101.000000 289.599976,101.000000 286.449982,100.541016 
	C285.999451,97.421158 286.350616,94.693733 285.864471,92.124756 
	C285.579681,90.619858 284.028320,88.253075 282.929871,88.185928 
	C276.699249,87.805099 270.433289,88.001587 264.000000,88.001587 
	C264.000000,92.722435 264.000000,96.861221 264.000000,101.000000 
	C263.555542,101.000000 263.111115,101.000000 262.333313,100.537766 
	C262.000000,96.235207 262.000000,92.394875 262.000000,88.554543 
	C261.599396,88.529755 261.198761,88.504967 260.798157,88.480179 
	C260.532074,90.630821 260.559784,92.876755 259.903351,94.900787 
	C259.412445,96.414391 258.039185,97.641830 257.058838,98.996696 
	C256.039276,97.682541 254.508743,96.502785 254.119476,95.022835 
	C253.530365,92.783173 253.735886,90.334496 253.603760,87.974632 
	C252.957977,88.031006 252.312180,88.087379 251.666382,88.143753 
	C252.110931,92.429169 252.555466,96.714584 253.000000,101.000000 
	C250.958328,101.000000 248.916672,101.000000 246.437500,100.546295 
	C246.614914,96.053375 243.551163,90.776634 249.883865,88.000153 
	C247.656128,88.000153 245.428391,88.000053 243.200653,88.000183 
	C241.028732,88.000313 238.851776,88.097183 236.685776,87.984055 
	C227.804794,87.520210 225.828674,90.224327 228.609512,99.115311 
	C228.800079,99.724655 228.872574,100.370911 229.000000,101.000000 
	C228.250000,101.000000 227.500000,101.000000 226.367615,100.571541 
	C223.797089,99.563232 221.608948,98.983383 219.150879,98.332001 
	C217.883072,94.556175 220.687531,93.913307 223.782883,92.965385 
	C222.168594,92.399467 220.554291,91.833542 218.939987,91.267616 
	C218.961823,90.970627 218.983643,90.673630 219.005478,90.376640 
	C221.678574,90.119156 224.351669,89.861679 227.024765,89.604195 
	C227.003860,89.119751 226.982971,88.635300 226.962067,88.150856 
	C223.854599,88.150856 220.738892,88.034317 217.646881,88.252907 
	C217.055374,88.294724 216.068985,89.676857 216.098801,90.406563 
	C216.243286,93.944077 216.671997,97.469978 217.000000,101.000000 
	C215.285645,101.000000 213.571289,101.000000 211.428467,100.548462 
	C211.240906,95.843040 209.437286,91.008064 215.225433,88.123154 
	C202.566574,87.748161 202.568542,87.748337 201.839859,96.065331 
	C201.830048,96.177483 201.506760,96.262169 201.179749,96.442322 
	C201.012192,93.522713 200.853638,90.760201 200.695084,87.997688 
	C200.130066,88.007690 199.565033,88.017685 199.000000,88.027687 
	C199.000000,90.040138 198.843674,92.067291 199.031143,94.062126 
	C199.480927,98.848206 197.265732,99.826126 193.184952,98.566910 
	C193.001480,94.975166 192.826889,91.556976 192.652283,88.138794 
	C192.047607,88.126671 191.442917,88.114555 190.838242,88.102432 
	C190.394135,90.224854 189.950012,92.347275 189.505905,94.469696 
	C189.281235,94.440773 189.056549,94.411858 188.831879,94.382935 
	C188.831879,92.319763 188.831879,90.256592 188.831879,88.289032 
	C181.336166,88.289032 174.264511,88.289032 167.000000,88.289032 
	C167.000000,92.717674 167.000000,96.858841 167.000000,101.000000 
	C167.000000,101.000000 166.500000,101.000000 166.250000,100.538635 
	C165.999908,97.282478 165.895660,94.482719 166.028992,91.694313 
	C166.162476,88.902840 164.959793,87.823311 162.229752,87.973045 
	C159.854111,88.103348 157.465652,88.000183 155.000000,88.000183 
	C155.000000,92.793671 155.000000,96.896835 155.000000,101.000000 
	C152.958328,101.000000 150.916672,101.000000 148.735855,100.655304 
	C148.112564,99.887924 147.693756,99.317726 147.132507,99.069061 
	C145.116989,98.176094 143.053314,97.391800 141.007843,96.566429 
	C142.652344,95.390556 144.296829,94.214676 146.211792,92.845406 
	C145.020798,92.217186 143.957291,91.656219 141.777908,90.506676 
	C145.051147,90.086815 147.055344,89.829735 149.059555,89.572655 
	C149.005676,89.182030 148.951813,88.791397 148.897934,88.400772 
	C145.654236,88.400772 142.410522,88.400772 139.000000,88.400772 
	C139.000000,92.753342 139.000000,96.876671 139.000000,101.000000 
	C138.555557,101.000000 138.111099,101.000000 137.465942,100.598373 
	C140.044098,89.272430 138.940643,87.739258 128.471008,88.033630 
	C128.030960,88.045998 127.598198,88.317322 127.000000,88.523987 
	C127.000000,92.724327 127.000000,96.862160 127.000000,101.000000 
	C125.285645,101.000000 123.571281,101.000000 121.559486,100.600090 
	C121.498978,97.129051 122.022842,94.038498 121.816864,90.997368 
	C121.744980,89.935966 119.950851,88.259346 118.808327,88.138435 
	C115.266243,87.763565 111.659325,88.001343 107.893036,88.001343 
	C107.893036,91.983177 107.893036,95.282417 107.893036,98.554283 
	C102.086426,99.205566 102.063225,99.167892 101.988609,93.857750 
	C101.961044,91.896301 101.803734,89.936676 101.705597,87.976212 
	C101.172562,87.984741 100.639519,87.993271 100.106483,88.001793 
	C100.106483,91.120255 100.106483,94.238716 100.106483,97.357178 
	C99.684418,97.339996 99.262352,97.322815 98.840286,97.305634 
	C98.840286,94.343987 98.840286,91.382339 98.840286,88.420700 
	C96.809456,92.600479 96.230827,96.766190 98.000000,101.000000 
	C95.958336,101.000000 93.916664,101.000000 91.437500,100.548462 
	C91.260979,95.843727 89.360390,90.957924 95.199226,88.236145 
	C91.478455,88.236145 88.458023,88.236145 86.758461,88.236145 
	C87.508102,91.176918 88.347626,94.083923 88.956215,97.038490 
	C89.217743,98.308128 89.000000,99.676491 89.000000,101.000000 
	C87.611107,101.000000 86.222221,101.000000 84.409637,100.574585 
	C83.230362,99.766380 82.459167,99.028824 81.721840,99.061249 
	C78.231659,99.214729 75.731888,99.097725 75.840416,94.209488 
	C75.949127,89.312729 78.822205,90.023018 81.796356,89.960381 
	C82.561501,89.944260 83.316780,89.459610 84.076591,89.190208 
	C84.008629,88.754929 83.940666,88.319656 83.872704,87.884377 
	C80.608162,88.134109 75.468178,87.264519 74.500847,88.885300 
	C72.886444,91.590256 73.935417,95.888222 73.879333,99.515785 
	C73.871696,100.009781 73.957474,100.505226 74.000000,101.000000 
	C73.250000,101.000000 72.500000,101.000000 71.367630,100.571678 
	C68.778168,99.558792 66.571091,98.974220 63.119785,98.060112 
	C64.781364,96.054314 66.247086,94.284950 67.651009,92.590179 
	C66.925056,92.144669 65.894669,91.512321 64.230011,90.490723 
	C67.450912,90.057655 69.768417,89.746048 72.085922,89.434441 
	C61.066845,86.744331 60.999981,86.799553 61.000004,97.500992 
	C61.000004,98.667328 61.000000,99.833664 61.000000,101.000000 
	C60.555553,101.000000 60.111111,101.000000 59.326954,100.580139 
	C58.240097,99.773773 57.441376,98.980232 56.754223,99.067291 
	C52.505527,99.605568 51.319752,97.372597 52.049210,93.792519 
	C52.873928,89.744904 50.941856,88.649025 47.374222,88.052826 
	C39.330963,86.708702 38.000080,87.627167 38.000000,95.543854 
	C37.999985,97.362572 38.000000,99.181282 38.000000,101.000000 
	C38.000000,101.000000 37.500000,101.000000 37.242001,100.566437 
	C34.471306,99.572578 31.958612,99.012268 29.322029,98.424339 
	C29.322029,95.790504 29.322029,92.939461 29.322029,89.533218 
	C32.096001,89.533218 34.545399,89.533218 36.994797,89.533218 
	C36.988930,89.031242 36.983063,88.529274 36.977196,88.027298 
	C34.016239,88.027298 31.040583,87.867210 28.104376,88.136810 
	C27.344610,88.206566 26.100277,89.638557 26.120022,90.418457 
	C26.209444,93.950798 26.671867,97.473701 27.000000,101.000000 
	C18.369953,101.000000 9.739905,101.000000 1.000000,101.000000 
	C1.000000,75.312531 1.000000,49.624924 1.399477,23.599392 
	C4.373276,23.507870 7.026986,23.458286 9.490185,24.118977 
	C10.827074,24.477564 12.751020,25.964233 12.850132,27.080563 
	C13.476562,34.136299 13.637775,41.232319 14.011211,48.311947 
	C14.217613,52.224930 13.134459,54.726448 8.523173,54.030674 
	C7.220845,53.834171 5.840272,53.869171 4.540267,54.077209 
	C3.972984,54.167992 3.136347,54.948265 3.118980,55.440033 
	C3.101372,55.938637 3.873658,56.797211 4.424022,56.914101 
	C5.540831,57.151287 6.747984,57.077606 7.906122,56.984936 
	C11.924525,56.663376 14.073073,57.990440 14.088252,62.505558 
	C14.104044,67.202927 17.275200,70.154457 21.563135,70.834641 
	C25.044756,71.386909 28.746853,70.421043 32.356434,70.323784 
	C38.323723,70.162979 44.295090,70.136070 50.265030,70.095337 
	C58.760883,70.037369 67.261368,70.139648 75.747711,69.834770 
	C76.863991,69.794670 78.789986,67.795074 78.840401,66.637657 
	C79.125664,60.088894 79.905716,53.509686 78.913971,46.967915 
	C78.741974,45.833416 77.736313,44.825298 76.575714,42.830833 
	C75.536880,50.961597 75.491882,50.999241 68.287888,50.999969 
	C66.122261,51.000187 63.912788,50.739208 61.806698,51.093307 
	C60.442669,51.322643 59.258709,52.510059 57.938358,53.153942 
	C57.130985,53.547657 56.220478,53.954048 55.352238,53.963036 
	C48.856060,54.030258 42.352348,54.151348 35.867485,53.872330 
	C34.565651,53.816315 32.322136,52.211315 32.230629,51.169613 
	C31.501341,42.867439 31.186249,34.528881 30.762753,26.551785 
	C35.358723,25.960398 39.070515,25.223087 42.806477,25.067974 
	C47.447674,24.875277 53.010857,23.575371 56.563881,25.592710 
	C62.939487,29.212656 69.328140,28.850746 75.907272,28.888691 
	C76.892685,28.894373 78.120560,27.583538 78.820503,26.589083 
	C79.810349,25.182739 80.413216,23.504023 81.143059,22.019886 
	C80.585114,21.157526 79.220490,19.987066 79.098518,18.698944 
	C78.541611,12.817356 78.333473,6.902744 78.000000,1.000000 
	C150.687561,1.000000 223.375122,1.000000 296.531342,1.442495 
	C296.998474,8.999502 296.995544,9.126689 290.074036,8.967973 
	C281.319275,8.767220 272.571747,8.162204 263.817474,8.068443 
	C259.070160,8.017597 254.319290,8.815418 249.562347,8.941865 
	C246.842667,9.014159 244.108856,8.492093 241.379074,8.265892 
	C239.089432,8.076164 236.796402,7.927388 233.310806,7.673509 
	C233.235092,10.214944 233.214340,14.168840 232.934479,18.104313 
	C232.860901,19.138870 232.216324,20.611734 231.414902,20.985977 
	C230.548370,21.390633 228.858398,21.124674 228.119110,20.476517 
	C226.678543,19.213560 225.282516,17.642632 224.517853,15.912117 
	C221.756912,9.663804 216.053970,8.353537 210.424637,8.163823 
	C202.211090,7.887019 193.963135,8.836821 185.727081,8.898865 
	C183.224808,8.917715 180.713486,7.732247 178.451889,7.160463 
	C176.273514,7.739477 173.927780,8.758963 171.525665,8.915920 
	C167.044998,9.208696 162.526413,8.879156 158.034683,9.069698 
	C156.582718,9.131293 155.165436,10.010556 153.732285,10.515786 
	C154.691040,11.784001 155.325912,12.030667 155.933533,11.975766 
	C160.463364,11.566476 162.370209,13.117290 162.122360,18.112770 
	C161.685196,26.924040 162.000000,35.772621 162.000000,44.605579 
	C162.000000,52.047352 162.000000,59.489124 162.000000,66.713623 
	C158.360336,67.625763 156.712250,66.643188 155.911102,63.323742 
	C154.278107,56.557632 152.195557,49.900024 150.110199,42.533539 
	C152.431290,42.245335 154.544708,41.982918 156.658127,41.720497 
	C155.208710,40.099895 153.480911,39.612881 151.809769,38.976948 
	C150.757782,38.576630 149.364761,38.215752 148.854279,37.387527 
	C145.414337,31.806450 146.045380,28.629807 151.920288,25.141872 
	C140.651108,26.664553 144.689636,17.830631 142.396103,13.532381 
	C145.031570,12.959411 147.606384,12.399626 150.181198,11.839842 
	C150.056885,11.527366 149.932571,11.214889 149.808258,10.902412 
	C145.607941,9.871879 141.407608,8.841344 137.031937,7.767786 
	C137.058243,7.545613 136.921829,8.697584 136.729446,10.322264 
	C131.402405,8.601012 125.358727,12.840710 121.076164,7.095787 
	C118.935883,9.695267 111.570801,11.166497 108.224472,9.652750 
	C108.040726,8.453110 107.861687,7.254276 107.682640,6.055441 
	C105.455559,7.693941 103.779640,9.530088 103.181023,11.667897 
	C101.202438,18.733934 99.700813,25.988848 89.672813,25.958317 
	C92.369186,26.998991 94.746521,27.916533 97.257439,28.885628 
	C93.039734,38.212742 89.112030,46.898548 84.997780,55.996883 
	C85.054581,56.252075 85.891754,57.730366 85.524513,58.792027 
	C84.428947,61.959137 82.601463,64.877419 81.555313,68.055954 
	C80.633057,70.858047 80.377312,73.879517 79.827248,76.804108 
	C80.307472,77.217339 80.787697,77.630569 81.267921,78.043800 
	C83.117912,69.678352 89.164017,71.175591 94.574516,70.958351 
	C97.726334,70.831795 100.861450,70.289154 103.165024,70.028625 
	C103.494354,67.257500 103.393997,65.197845 104.011810,63.382618 
	C107.572250,52.921421 111.401924,42.551392 114.918427,32.075970 
	C116.063400,28.665146 117.847275,27.080719 121.567772,26.894936 
	C125.498428,26.698656 127.018639,28.829342 127.946487,31.931150 
	C128.709229,34.481022 129.251678,37.096798 129.894470,39.694252 
	C125.404228,39.694252 121.181274,39.694252 116.514236,39.694252 
	C114.387680,45.497475 112.172913,51.541401 110.315666,56.609688 
	C117.039581,56.405609 123.659409,55.904884 130.240982,56.215229 
	C131.891327,56.293045 133.701981,58.778629 134.917511,60.521343 
	C135.982849,62.048710 136.815353,64.068413 136.880936,65.901741 
	C137.083817,71.574249 139.902267,71.479996 144.388962,70.459610 
	C147.389374,69.777237 150.929764,70.247429 153.906738,71.203651 
	C155.375565,71.675453 156.115768,74.415634 157.351517,76.395065 
	C158.032913,73.859932 158.575729,71.840385 159.298096,69.152817 
	C161.218033,70.815369 162.315674,71.765854 163.413315,72.716339 
	C163.441544,72.280609 163.469772,71.844879 163.498001,71.409149 
	C170.982666,71.409149 178.467331,71.409149 185.951996,71.409149 
	C186.113647,70.664307 186.275284,69.919464 186.436920,69.174629 
	C184.385818,68.252396 182.334702,67.330162 180.176682,66.359863 
	C179.794601,62.449535 179.036316,58.379890 179.075760,54.317989 
	C179.155899,46.063656 179.548325,37.805164 180.127243,29.570545 
	C180.215164,28.320019 181.952271,26.204174 182.996780,26.160301 
	C190.150421,25.859808 197.343140,25.710585 204.475693,26.202469 
	C206.396759,26.334953 209.049652,28.501381 209.773972,30.356123 
	C210.841461,33.089619 208.596619,35.061127 205.913834,36.027458 
	C199.040833,38.503094 192.512558,35.611919 185.000000,34.606377 
	C185.000000,38.583065 184.956192,42.485775 185.012589,46.387039 
	C185.066803,50.137684 183.571716,54.949375 190.396744,54.237457 
	C191.162521,54.157578 192.214249,55.558594 192.924820,56.440842 
	C195.265518,59.347019 197.618607,62.256538 199.719040,65.333969 
	C200.272552,66.144920 199.931702,67.566330 200.042297,69.373116 
	C209.570190,69.373116 219.731750,69.373116 229.893311,69.373116 
	C221.748764,67.235001 218.619751,60.207916 214.174164,54.283524 
	C227.150909,50.281265 229.335587,41.839924 227.671265,31.035273 
	C227.317734,28.740326 228.126144,26.266397 228.399231,23.874929 
	C229.099991,23.748877 229.800751,23.622826 230.501511,23.496773 
	C231.667175,24.995260 233.782288,26.457529 233.841064,27.998243 
	C234.168793,36.589321 233.998520,45.199398 233.998520,54.127796 
	C230.012741,54.127796 226.585098,54.127796 223.157471,54.127796 
	C223.055466,54.705185 222.953445,55.282574 222.851440,55.859962 
	C225.067474,56.239979 227.285919,56.938946 229.498947,56.922173 
	C232.507690,56.899372 234.000031,57.524395 234.098511,61.031872 
	C234.277954,67.422089 238.349625,71.119751 244.656876,70.959579 
	C250.079498,70.821861 255.496002,70.023537 260.910339,70.071159 
	C270.163971,70.152565 279.413147,70.908485 288.665436,70.934563 
	C298.639832,70.962677 298.848175,70.740532 298.924469,61.054501 
	C298.972504,54.955551 302.732574,55.834984 306.281494,56.139812 
	C307.629578,60.180401 308.917755,64.041405 310.293182,68.164001 
	C309.494995,68.563637 308.203918,69.210014 306.719574,69.953171 
	C311.944916,73.556572 318.391602,67.356041 322.724213,72.521126 
	C324.382172,71.798904 326.125031,70.359070 327.807251,70.426712 
	C334.493195,70.695549 341.169189,71.980431 347.832031,71.870148 
	C357.451019,71.710938 367.055359,70.666161 376.033539,70.043137 
	C381.136169,50.301548 378.742615,30.717579 379.019867,11.214829 
	C378.426361,10.815567 377.832825,10.416305 377.239288,10.017043 
	C377.102356,11.373593 376.965424,12.730144 376.828491,14.086694 
	C376.506134,13.422019 376.183777,12.757344 375.861420,12.092670 
	C373.068970,11.063297 370.253937,9.102937 367.488037,9.169973 
	C356.993622,9.424332 346.522675,10.625988 336.027985,10.899699 
	C328.789673,11.088480 321.515045,10.470484 314.286407,9.860498 
	C313.111908,9.761387 311.946777,7.933241 311.056335,6.702435 
	C310.535950,5.983146 310.568512,4.863795 310.352325,3.924420 
	C309.661926,8.629868 307.679871,10.892734 302.790039,10.167190 
	C301.917358,10.037699 300.834625,11.323605 299.356995,12.271516 
	C303.078339,13.009727 306.083008,13.605767 309.236969,14.231423 
	C308.019745,19.060625 306.991333,23.140669 306.050476,26.873417 
	C306.691376,28.862297 307.801544,30.868776 307.910248,32.928116 
	C308.182190,38.080208 307.650116,43.287155 308.102600,48.413662 
	C308.519440,53.136440 305.279846,53.615795 302.337402,53.880703 
	C298.732056,54.205303 299.216553,51.034443 299.000427,48.701069 
	C298.888367,47.490833 298.780762,46.280190 298.671112,45.069729 
	C297.084869,45.778259 296.623199,46.840927 295.979736,47.778900 
	C295.249481,48.843414 294.480927,50.513214 293.513977,50.681068 
	C287.366364,51.748253 281.239746,50.906734 274.904297,53.551388 
	C269.652985,55.743473 262.751038,54.159241 256.598633,53.865761 
	C255.357727,53.806564 253.250885,52.116570 253.152863,51.032867 
	C252.412842,42.851196 252.074860,34.633160 251.530746,25.000019 
	C259.700409,25.000019 267.057770,24.985817 274.414917,25.014875 
	C275.558014,25.019390 277.097107,24.782526 277.781219,25.400747 
	C284.170044,31.174194 292.148163,25.545176 297.828491,29.069414 
	C299.238770,26.216211 300.213959,24.243187 300.791168,23.075415 
	C300.155334,20.096870 299.359161,17.415440 299.049255,14.678937 
	C298.534973,10.137924 298.333344,5.561505 298.000000,1.000000 
	C352.333344,1.000000 406.666687,1.000000 461.000000,1.000000 
	C461.000000,4.385324 461.000000,7.709706 460.620056,11.403953 
	C459.466064,8.941338 458.692047,6.108858 457.917999,3.276378 
	C457.989899,9.254183 454.963226,10.629609 449.899231,10.052796 
	C447.266907,9.752966 444.555511,9.819159 441.911804,10.064485 
	C440.186188,10.224616 438.518005,11.003434 437.553772,11.289011 
	C439.248840,13.407872 441.758728,15.090449 441.812866,16.848679 
	C442.169403,28.423359 441.996887,40.014336 441.996887,51.599998 
	C441.686554,51.641060 441.376221,51.682121 441.065857,51.723183 
	C440.136292,49.717869 439.206787,47.712528 438.277130,45.707268 
	C433.957977,36.390755 429.502960,27.134136 425.361816,17.739166 
	C421.937347,9.970144 419.872253,8.974617 412.372437,11.930870 
	C410.925415,12.501242 409.095428,12.254741 407.456329,12.153915 
	C402.493286,11.848628 397.537231,11.429815 392.473969,11.047342 
	C391.893494,9.723326 391.033966,7.762859 390.174469,5.802392 
	C389.449646,5.937943 388.724823,6.073493 388.000000,6.209043 
	C388.000000,13.417102 388.000000,20.625160 388.000000,27.833220 
	C388.000000,43.165401 387.991913,58.497593 388.013550,73.829742 
	C388.015533,75.231407 388.207703,76.632805 388.311554,78.034325 
	C388.857269,78.337143 389.402985,78.639961 389.948700,78.942780 
	C389.363525,70.213707 394.647705,70.664803 399.966339,70.969795 
	C402.906036,71.138359 405.863373,71.000000 407.725800,71.000000 
	C407.001495,55.828159 406.295380,41.037823 405.589294,26.247488 
	C406.343018,26.016562 407.096710,25.785635 407.850433,25.554708 
	C414.557495,39.226738 421.264557,52.898766 427.885803,66.395935 
	C424.185150,67.062607 421.049042,67.627579 417.912903,68.192551 
	C417.978363,68.917969 418.043793,69.643387 418.109253,70.368805 
	C431.021881,70.368805 443.934479,70.368805 455.989624,70.368805 
	C457.131073,73.803932 457.856354,75.986588 458.581635,78.169243 
	C459.054413,78.046440 459.527222,77.923637 460.000000,77.800835 
	C460.000000,76.177246 460.000000,74.553650 460.000000,72.930054 
	C460.000000,54.764751 459.976837,36.599369 460.043304,18.434309 
	C460.048706,16.955059 460.666656,15.478050 461.000000,14.000000 
z"/>
<path fill="#000000" opacity="1.000000" stroke="none" 
	d="
M297.750000,1.000000 
	C298.333344,5.561505 298.534973,10.137924 299.049255,14.678937 
	C299.359161,17.415440 300.155334,20.096870 300.791168,23.075415 
	C300.213959,24.243187 299.238770,26.216211 297.828491,29.069414 
	C292.148163,25.545176 284.170044,31.174194 277.781219,25.400747 
	C277.097107,24.782526 275.558014,25.019390 274.414917,25.014875 
	C267.057770,24.985817 259.700409,25.000019 251.530746,25.000019 
	C252.074860,34.633160 252.412842,42.851196 253.152863,51.032867 
	C253.250885,52.116570 255.357727,53.806564 256.598633,53.865761 
	C262.751038,54.159241 269.652985,55.743473 274.904297,53.551388 
	C281.239746,50.906734 287.366364,51.748253 293.513977,50.681068 
	C294.480927,50.513214 295.249481,48.843414 295.979736,47.778900 
	C296.623199,46.840927 297.084869,45.778259 298.671112,45.069729 
	C298.780762,46.280190 298.888367,47.490833 299.000427,48.701069 
	C299.216553,51.034443 298.732056,54.205303 302.337402,53.880703 
	C305.279846,53.615795 308.519440,53.136440 308.102600,48.413662 
	C307.650116,43.287155 308.182190,38.080208 307.910248,32.928116 
	C307.801544,30.868776 306.691376,28.862297 306.050476,26.873417 
	C306.991333,23.140669 308.019745,19.060625 309.236969,14.231423 
	C306.083008,13.605767 303.078339,13.009727 299.356995,12.271516 
	C300.834625,11.323605 301.917358,10.037699 302.790039,10.167190 
	C307.679871,10.892734 309.661926,8.629868 310.352325,3.924420 
	C310.568512,4.863795 310.535950,5.983146 311.056335,6.702435 
	C311.946777,7.933241 313.111908,9.761387 314.286407,9.860498 
	C321.515045,10.470484 328.789673,11.088480 336.027985,10.899699 
	C346.522675,10.625988 356.993622,9.424332 367.488037,9.169973 
	C370.253937,9.102937 373.068970,11.063297 375.861420,12.092670 
	C376.183777,12.757344 376.506134,13.422019 376.828491,14.086694 
	C376.965424,12.730144 377.102356,11.373593 377.239288,10.017043 
	C377.832825,10.416305 378.426361,10.815567 379.019867,11.214829 
	C378.742615,30.717579 381.136169,50.301548 376.033539,70.043137 
	C367.055359,70.666161 357.451019,71.710938 347.832031,71.870148 
	C341.169189,71.980431 334.493195,70.695549 327.807251,70.426712 
	C326.125031,70.359070 324.382172,71.798904 322.724213,72.521126 
	C318.391602,67.356041 311.944916,73.556572 306.719574,69.953171 
	C308.203918,69.210014 309.494995,68.563637 310.293182,68.164001 
	C308.917755,64.041405 307.629578,60.180401 306.281494,56.139812 
	C302.732574,55.834984 298.972504,54.955551 298.924469,61.054501 
	C298.848175,70.740532 298.639832,70.962677 288.665436,70.934563 
	C279.413147,70.908485 270.163971,70.152565 260.910339,70.071159 
	C255.496002,70.023537 250.079498,70.821861 244.656876,70.959579 
	C238.349625,71.119751 234.277954,67.422089 234.098511,61.031872 
	C234.000031,57.524395 232.507690,56.899372 229.498947,56.922173 
	C227.285919,56.938946 225.067474,56.239979 222.851440,55.859962 
	C222.953445,55.282574 223.055466,54.705185 223.157471,54.127796 
	C226.585098,54.127796 230.012741,54.127796 233.998520,54.127796 
	C233.998520,45.199398 234.168793,36.589321 233.841064,27.998243 
	C233.782288,26.457529 231.667175,24.995260 230.501511,23.496773 
	C229.800751,23.622826 229.099991,23.748877 228.399231,23.874929 
	C228.126144,26.266397 227.317734,28.740326 227.671265,31.035273 
	C229.335587,41.839924 227.150909,50.281265 214.174164,54.283524 
	C218.619751,60.207916 221.748764,67.235001 229.893311,69.373116 
	C219.731750,69.373116 209.570190,69.373116 200.042297,69.373116 
	C199.931702,67.566330 200.272552,66.144920 199.719040,65.333969 
	C197.618607,62.256538 195.265518,59.347019 192.924820,56.440842 
	C192.214249,55.558594 191.162521,54.157578 190.396744,54.237457 
	C183.571716,54.949375 185.066803,50.137684 185.012589,46.387039 
	C184.956192,42.485775 185.000000,38.583065 185.000000,34.606377 
	C192.512558,35.611919 199.040833,38.503094 205.913834,36.027458 
	C208.596619,35.061127 210.841461,33.089619 209.773972,30.356123 
	C209.049652,28.501381 206.396759,26.334953 204.475693,26.202469 
	C197.343140,25.710585 190.150421,25.859808 182.996780,26.160301 
	C181.952271,26.204174 180.215164,28.320019 180.127243,29.570545 
	C179.548325,37.805164 179.155899,46.063656 179.075760,54.317989 
	C179.036316,58.379890 179.794601,62.449535 180.176682,66.359863 
	C182.334702,67.330162 184.385818,68.252396 186.436920,69.174629 
	C186.275284,69.919464 186.113647,70.664307 185.951996,71.409149 
	C178.467331,71.409149 170.982666,71.409149 163.498001,71.409149 
	C163.469772,71.844879 163.441544,72.280609 163.413315,72.716339 
	C162.315674,71.765854 161.218033,70.815369 159.298096,69.152817 
	C158.575729,71.840385 158.032913,73.859932 157.351517,76.395065 
	C156.115768,74.415634 155.375565,71.675453 153.906738,71.203651 
	C150.929764,70.247429 147.389374,69.777237 144.388962,70.459610 
	C139.902267,71.479996 137.083817,71.574249 136.880936,65.901741 
	C136.815353,64.068413 135.982849,62.048710 134.917511,60.521343 
	C133.701981,58.778629 131.891327,56.293045 130.240982,56.215229 
	C123.659409,55.904884 117.039581,56.405609 110.315666,56.609688 
	C112.172913,51.541401 114.387680,45.497475 116.514236,39.694252 
	C121.181274,39.694252 125.404228,39.694252 129.894470,39.694252 
	C129.251678,37.096798 128.709229,34.481022 127.946487,31.931150 
	C127.018639,28.829342 125.498428,26.698656 121.567772,26.894936 
	C117.847275,27.080719 116.063400,28.665146 114.918427,32.075970 
	C111.401924,42.551392 107.572250,52.921421 104.011810,63.382618 
	C103.393997,65.197845 103.494354,67.257500 103.165024,70.028625 
	C100.861450,70.289154 97.726334,70.831795 94.574516,70.958351 
	C89.164017,71.175591 83.117912,69.678352 81.267921,78.043800 
	C80.787697,77.630569 80.307472,77.217339 79.827248,76.804108 
	C80.377312,73.879517 80.633057,70.858047 81.555313,68.055954 
	C82.601463,64.877419 84.428947,61.959137 85.524513,58.792027 
	C85.891754,57.730366 85.054581,56.252075 84.997780,55.996883 
	C89.112030,46.898548 93.039734,38.212742 97.257439,28.885628 
	C94.746521,27.916533 92.369186,26.998991 89.672813,25.958317 
	C99.700813,25.988848 101.202438,18.733934 103.181023,11.667897 
	C103.779640,9.530088 105.455559,7.693941 107.682640,6.055441 
	C107.861687,7.254276 108.040726,8.453110 108.224472,9.652750 
	C111.570801,11.166497 118.935883,9.695267 121.076164,7.095787 
	C125.358727,12.840710 131.402405,8.601012 136.729446,10.322264 
	C136.921829,8.697584 137.058243,7.545613 137.031937,7.767786 
	C141.407608,8.841344 145.607941,9.871879 149.808258,10.902412 
	C149.932571,11.214889 150.056885,11.527366 150.181198,11.839842 
	C147.606384,12.399626 145.031570,12.959411 142.396103,13.532381 
	C144.689636,17.830631 140.651108,26.664553 151.920288,25.141872 
	C146.045380,28.629807 145.414337,31.806450 148.854279,37.387527 
	C149.364761,38.215752 150.757782,38.576630 151.809769,38.976948 
	C153.480911,39.612881 155.208710,40.099895 156.658127,41.720497 
	C154.544708,41.982918 152.431290,42.245335 150.110199,42.533539 
	C152.195557,49.900024 154.278107,56.557632 155.911102,63.323742 
	C156.712250,66.643188 158.360336,67.625763 162.000000,66.713623 
	C162.000000,59.489124 162.000000,52.047352 162.000000,44.605579 
	C162.000000,35.772621 161.685196,26.924040 162.122360,18.112770 
	C162.370209,13.117290 160.463364,11.566476 155.933533,11.975766 
	C155.325912,12.030667 154.691040,11.784001 153.732285,10.515786 
	C155.165436,10.010556 156.582718,9.131293 158.034683,9.069698 
	C162.526413,8.879156 167.044998,9.208696 171.525665,8.915920 
	C173.927780,8.758963 176.273514,7.739477 178.451889,7.160463 
	C180.713486,7.732247 183.224808,8.917715 185.727081,8.898865 
	C193.963135,8.836821 202.211090,7.887019 210.424637,8.163823 
	C216.053970,8.353537 221.756912,9.663804 224.517853,15.912117 
	C225.282516,17.642632 226.678543,19.213560 228.119110,20.476517 
	C228.858398,21.124674 230.548370,21.390633 231.414902,20.985977 
	C232.216324,20.611734 232.860901,19.138870 232.934479,18.104313 
	C233.214340,14.168840 233.235092,10.214944 233.310806,7.673509 
	C236.796402,7.927388 239.089432,8.076164 241.379074,8.265892 
	C244.108856,8.492093 246.842667,9.014159 249.562347,8.941865 
	C254.319290,8.815418 259.070160,8.017597 263.817474,8.068443 
	C272.571747,8.162204 281.319275,8.767220 290.074036,8.967973 
	C296.995544,9.126689 296.998474,8.999502 297.000000,1.442495 
	C297.000000,1.000000 297.500000,1.000000 297.750000,1.000000 
M360.969604,28.953882 
	C359.578827,28.303020 358.198059,27.114599 356.795654,27.088501 
	C347.664001,26.918564 338.527649,26.992435 329.392853,27.005442 
	C326.249176,27.009918 324.769592,28.304317 324.929504,31.759523 
	C325.190399,37.396221 325.137451,43.058445 324.946960,48.700783 
	C324.837982,51.927715 325.937958,53.116638 329.231934,53.057129 
	C338.366669,52.892094 347.509766,52.854771 356.642365,53.070911 
	C360.329163,53.158165 361.156128,51.627468 361.054230,48.327549 
	C360.864594,42.186195 360.998657,36.034840 360.969604,28.953882 
z"/>
<path fill="#000000" opacity="1.000000" stroke="none" 
	d="
M461.000000,13.666667 
	C460.666656,15.478050 460.048706,16.955059 460.043304,18.434309 
	C459.976837,36.599369 460.000000,54.764751 460.000000,72.930054 
	C460.000000,74.553650 460.000000,76.177246 460.000000,77.800835 
	C459.527222,77.923637 459.054413,78.046440 458.581635,78.169243 
	C457.856354,75.986588 457.131073,73.803932 455.989624,70.368805 
	C443.934479,70.368805 431.021881,70.368805 418.109253,70.368805 
	C418.043793,69.643387 417.978363,68.917969 417.912903,68.192551 
	C421.049042,67.627579 424.185150,67.062607 427.885803,66.395935 
	C421.264557,52.898766 414.557495,39.226738 407.850433,25.554708 
	C407.096710,25.785635 406.343018,26.016562 405.589294,26.247488 
	C406.295380,41.037823 407.001495,55.828159 407.725800,71.000000 
	C405.863373,71.000000 402.906036,71.138359 399.966339,70.969795 
	C394.647705,70.664803 389.363525,70.213707 389.948700,78.942780 
	C389.402985,78.639961 388.857269,78.337143 388.311554,78.034325 
	C388.207703,76.632805 388.015533,75.231407 388.013550,73.829742 
	C387.991913,58.497593 388.000000,43.165401 388.000000,27.833220 
	C388.000000,20.625160 388.000000,13.417102 388.000000,6.209043 
	C388.724823,6.073493 389.449646,5.937943 390.174469,5.802392 
	C391.033966,7.762859 391.893494,9.723326 392.473969,11.047342 
	C397.537231,11.429815 402.493286,11.848628 407.456329,12.153915 
	C409.095428,12.254741 410.925415,12.501242 412.372437,11.930870 
	C419.872253,8.974617 421.937347,9.970144 425.361816,17.739166 
	C429.502960,27.134136 433.957977,36.390755 438.277130,45.707268 
	C439.206787,47.712528 440.136292,49.717869 441.065857,51.723183 
	C441.376221,51.682121 441.686554,51.641060 441.996887,51.599998 
	C441.996887,40.014336 442.169403,28.423359 441.812866,16.848679 
	C441.758728,15.090449 439.248840,13.407872 437.553772,11.289011 
	C438.518005,11.003434 440.186188,10.224616 441.911804,10.064485 
	C444.555511,9.819159 447.266907,9.752966 449.899231,10.052796 
	C454.963226,10.629609 457.989899,9.254183 457.917999,3.276378 
	C458.692047,6.108858 459.466064,8.941338 460.620056,11.886909 
	C461.000000,12.444445 461.000000,12.888889 461.000000,13.666667 
z"/>
<path fill="#000000" opacity="1.000000" stroke="none" 
	d="
M77.666672,1.000000 
	C78.333473,6.902744 78.541611,12.817356 79.098518,18.698944 
	C79.220490,19.987066 80.585114,21.157526 81.143059,22.019886 
	C80.413216,23.504023 79.810349,25.182739 78.820503,26.589083 
	C78.120560,27.583538 76.892685,28.894373 75.907272,28.888691 
	C69.328140,28.850746 62.939487,29.212656 56.563881,25.592710 
	C53.010857,23.575371 47.447674,24.875277 42.806477,25.067974 
	C39.070515,25.223087 35.358723,25.960398 30.762753,26.551785 
	C31.186249,34.528881 31.501341,42.867439 32.230629,51.169613 
	C32.322136,52.211315 34.565651,53.816315 35.867485,53.872330 
	C42.352348,54.151348 48.856060,54.030258 55.352238,53.963036 
	C56.220478,53.954048 57.130985,53.547657 57.938358,53.153942 
	C59.258709,52.510059 60.442669,51.322643 61.806698,51.093307 
	C63.912788,50.739208 66.122261,51.000187 68.287888,50.999969 
	C75.491882,50.999241 75.536880,50.961597 76.575714,42.830833 
	C77.736313,44.825298 78.741974,45.833416 78.913971,46.967915 
	C79.905716,53.509686 79.125664,60.088894 78.840401,66.637657 
	C78.789986,67.795074 76.863991,69.794670 75.747711,69.834770 
	C67.261368,70.139648 58.760883,70.037369 50.265030,70.095337 
	C44.295090,70.136070 38.323723,70.162979 32.356434,70.323784 
	C28.746853,70.421043 25.044756,71.386909 21.563135,70.834641 
	C17.275200,70.154457 14.104044,67.202927 14.088252,62.505558 
	C14.073073,57.990440 11.924525,56.663376 7.906122,56.984936 
	C6.747984,57.077606 5.540831,57.151287 4.424022,56.914101 
	C3.873658,56.797211 3.101372,55.938637 3.118980,55.440033 
	C3.136347,54.948265 3.972984,54.167992 4.540267,54.077209 
	C5.840272,53.869171 7.220845,53.834171 8.523173,54.030674 
	C13.134459,54.726448 14.217613,52.224930 14.011211,48.311947 
	C13.637775,41.232319 13.476562,34.136299 12.850132,27.080563 
	C12.751020,25.964233 10.827074,24.477564 9.490185,24.118977 
	C7.026986,23.458286 4.373276,23.507870 1.399477,23.130733 
	C1.000000,23.000000 1.000000,22.500000 1.427369,22.243734 
	C5.501440,21.484179 9.148141,20.980886 13.631628,20.362110 
	C13.631628,15.387415 13.631628,10.358471 13.631628,5.152442 
	C15.546212,6.774180 16.826622,8.795224 18.156851,8.828564 
	C25.093739,9.002423 32.043785,8.689704 38.988228,8.507256 
	C42.431431,8.416793 45.879581,8.031271 49.313038,8.147404 
	C58.154804,8.446469 66.989624,8.950841 76.000000,9.381437 
	C76.000000,5.963495 76.000000,3.481747 76.000000,1.000000 
	C76.444443,1.000000 76.888893,1.000000 77.666672,1.000000 
z"/>
<path fill="#FFFFFF" opacity="1.000000" stroke="none" 
	d="
M75.531342,1.000000 
	C76.000000,3.481747 76.000000,5.963495 76.000000,9.381437 
	C66.989624,8.950841 58.154804,8.446469 49.313038,8.147404 
	C45.879581,8.031271 42.431431,8.416793 38.988228,8.507256 
	C32.043785,8.689704 25.093739,9.002423 18.156851,8.828564 
	C16.826622,8.795224 15.546212,6.774180 13.631628,5.152442 
	C13.631628,10.358471 13.631628,15.387415 13.631628,20.362110 
	C9.148141,20.980886 5.501440,21.484179 1.427369,21.993734 
	C1.000000,15.032055 1.000000,8.064110 1.000000,1.000000 
	C25.687485,1.000000 50.375084,1.000000 75.531342,1.000000 
z"/>
<path fill="#000000" opacity="1.000000" stroke="none" 
	d="
M167.333328,101.000000 
	C167.000000,96.858841 167.000000,92.717674 167.000000,88.289032 
	C174.264511,88.289032 181.336166,88.289032 188.831879,88.289032 
	C188.831879,90.256592 188.831879,92.319763 188.831879,94.382935 
	C189.056549,94.411858 189.281235,94.440773 189.505905,94.469696 
	C189.950012,92.347275 190.394135,90.224854 190.838242,88.102432 
	C191.442917,88.114555 192.047607,88.126671 192.652283,88.138794 
	C192.826889,91.556976 193.001480,94.975166 193.184952,98.566910 
	C197.265732,99.826126 199.480927,98.848206 199.031143,94.062126 
	C198.843674,92.067291 199.000000,90.040138 199.000000,88.027687 
	C199.565033,88.017685 200.130066,88.007690 200.695084,87.997688 
	C200.853638,90.760201 201.012192,93.522713 201.179749,96.442322 
	C201.506760,96.262169 201.830048,96.177483 201.839859,96.065331 
	C202.568542,87.748337 202.566574,87.748161 215.225433,88.123154 
	C209.437286,91.008064 211.240906,95.843040 211.000000,100.548462 
	C210.250000,101.000000 209.500000,101.000000 208.375000,100.538673 
	C208.000000,97.915710 208.155228,95.738464 207.940033,93.598465 
	C207.816818,92.373207 207.091415,91.208496 206.637115,90.016510 
	C206.091415,91.286346 205.330063,92.510216 205.047409,93.836128 
	C204.545288,96.191467 204.333344,98.608673 204.000000,101.000000 
	C194.979111,101.000000 185.958206,101.000000 176.468658,100.592705 
	C175.829300,96.518013 175.102692,93.407173 170.091095,94.165718 
	C169.701996,96.602943 169.350998,98.801468 169.000000,101.000000 
	C168.555557,101.000000 168.111099,101.000000 167.333328,101.000000 
M180.485031,92.008270 
	C180.323547,92.786919 179.778244,93.780525 180.071640,94.304413 
	C180.998566,95.959488 182.142517,97.533905 183.465256,98.881683 
	C183.660355,99.080490 186.031677,97.963791 186.100281,97.318054 
	C186.339310,95.068176 186.008957,92.757812 185.895035,90.470444 
	C184.252579,90.751648 182.610123,91.032860 180.485031,92.008270 
z"/>
<path fill="#000000" opacity="1.000000" stroke="none" 
	d="
M264.333313,101.000000 
	C264.000000,96.861221 264.000000,92.722435 264.000000,88.001587 
	C270.433289,88.001587 276.699249,87.805099 282.929871,88.185928 
	C284.028320,88.253075 285.579681,90.619858 285.864471,92.124756 
	C286.350616,94.693733 285.999451,97.421158 286.000000,100.541016 
	C285.250000,101.000000 284.500000,101.000000 283.375000,100.572136 
	C282.506012,97.803101 284.582581,93.915665 279.818146,94.065186 
	C275.497955,94.200775 277.488098,97.808090 277.009247,100.025734 
	C276.942108,100.336662 277.000000,100.674576 277.000000,101.000000 
	C275.611115,101.000000 274.222198,101.000000 272.416656,100.579216 
	C271.025116,98.106796 270.050201,96.055161 269.075317,94.003525 
	C268.050201,96.004951 267.010223,97.999046 266.018005,100.016663 
	C265.887024,100.282982 266.000000,100.669273 266.000000,101.000000 
	C265.555542,101.000000 265.111115,101.000000 264.333313,101.000000 
z"/>
<path fill="#000000" opacity="1.000000" stroke="none" 
	d="
M98.468620,101.000000 
	C96.230827,96.766190 96.809456,92.600479 98.840286,88.420700 
	C98.840286,91.382339 98.840286,94.343987 98.840286,97.305634 
	C99.262352,97.322815 99.684418,97.339996 100.106483,97.357178 
	C100.106483,94.238716 100.106483,91.120255 100.106483,88.001793 
	C100.639519,87.993271 101.172562,87.984741 101.705597,87.976212 
	C101.803734,89.936676 101.961044,91.896301 101.988609,93.857750 
	C102.063225,99.167892 102.086426,99.205566 107.893036,98.554283 
	C107.893036,95.282417 107.893036,91.983177 107.893036,88.001343 
	C111.659325,88.001343 115.266243,87.763565 118.808327,88.138435 
	C119.950851,88.259346 121.744980,89.935966 121.816864,90.997368 
	C122.022842,94.038498 121.498978,97.129051 121.131027,100.600090 
	C113.645744,101.000000 106.291496,101.000000 98.468620,101.000000 
M118.999992,95.417175 
	C118.999992,93.647270 118.999992,91.877373 118.999992,88.948776 
	C116.626625,90.232895 114.504982,90.682663 113.842789,91.916023 
	C113.016891,93.454247 112.973732,95.751015 113.441338,97.492348 
	C113.652161,98.277435 115.913414,98.833229 117.249931,98.844696 
	C117.825966,98.849640 118.416107,97.209755 118.999992,95.417175 
z"/>
<path fill="#000000" opacity="1.000000" stroke="none" 
	d="
M413.466125,101.000000 
	C413.000000,96.863266 413.000000,92.726532 413.000000,88.608398 
	C413.812500,88.800621 414.598267,89.214577 415.299286,89.101791 
	C416.512146,88.906639 417.660980,88.098732 418.856873,88.050781 
	C423.447235,87.866699 428.041504,88.713539 432.642365,88.008698 
	C436.272552,87.452568 437.300629,89.316261 437.038422,92.632553 
	C436.843353,95.099754 437.000000,97.594749 437.000000,100.538681 
	C436.555542,101.000000 436.111115,101.000000 435.333313,100.546257 
	C434.999969,98.104027 435.365723,96.021317 434.885406,94.156555 
	C434.493958,92.636871 433.293030,90.444351 432.096252,90.184555 
	C428.950928,89.501755 429.080750,92.102760 428.954437,94.352768 
	C428.829437,96.579353 428.333313,98.785103 428.000000,101.000000 
	C423.310760,101.000000 418.621490,101.000000 413.466125,101.000000 
M418.000000,94.676727 
	C418.078369,96.082481 418.156769,97.488235 418.243988,99.052452 
	C420.360168,98.957222 422.088165,98.879463 423.999878,98.793434 
	C423.999878,96.994194 424.366272,95.406853 423.904175,94.116112 
	C423.364960,92.609917 422.102020,91.362801 421.153076,90.003273 
	C420.102081,91.259445 419.051086,92.515625 418.000000,94.676727 
z"/>
<path fill="#000000" opacity="1.000000" stroke="none" 
	d="
M332.250000,101.000000 
	C331.672821,97.443489 331.179108,93.888321 331.150391,90.329407 
	C331.144226,89.561615 332.794250,88.136925 333.714935,88.108719 
	C340.114990,87.912666 346.523865,88.005219 352.929932,88.005219 
	C352.981201,88.506577 353.032501,89.007942 353.083771,89.509300 
	C350.743927,89.786209 348.404083,90.063126 346.064270,90.340034 
	C351.300293,91.735878 355.503876,93.609810 352.122986,100.608139 
	C348.307098,101.000000 344.614166,101.000000 340.454651,100.575195 
	C339.491272,96.824776 338.994507,93.499161 338.502472,90.205154 
	C334.291931,89.107315 332.881805,91.180031 332.990265,95.036667 
	C333.046112,97.022964 333.000031,99.012131 333.000000,101.000000 
	C333.000000,101.000000 332.500000,101.000000 332.250000,101.000000 
M342.027771,94.013374 
	C342.027771,95.592850 342.027771,97.172325 342.027771,98.999123 
	C344.271027,98.999123 346.116913,99.275162 347.821075,98.902657 
	C348.968292,98.651886 349.915161,97.484581 350.951660,96.727303 
	C349.851318,95.818436 348.881409,94.563835 347.617981,94.087311 
	C346.001892,93.477760 344.149261,93.495384 342.027771,94.013374 
z"/>
<path fill="#000000" opacity="1.000000" stroke="none" 
	d="
M359.333313,101.000000 
	C358.666687,98.772118 358.481934,96.508362 357.955353,94.327133 
	C357.491730,92.406723 356.645844,90.578590 355.722534,88.030128 
	C361.392761,88.030128 367.721252,87.918961 374.033691,88.186325 
	C374.735718,88.216049 375.785278,90.356766 375.910492,91.595627 
	C376.193665,94.397224 375.999817,97.247032 376.000000,100.538620 
	C375.555542,101.000000 375.111115,101.000000 374.333313,100.569046 
	C373.979187,94.612679 372.187836,92.280876 369.277374,94.249054 
	C367.712250,95.307472 367.708344,98.674599 367.000000,101.000000 
	C367.000000,101.000000 366.500000,101.000000 366.118835,100.599976 
	C365.363129,96.615883 364.988586,93.031822 364.614044,89.447754 
	C364.218170,89.268616 363.822266,89.089470 363.426392,88.910332 
	C362.617615,90.645493 361.430878,92.311363 361.096802,94.133553 
	C360.689789,96.353668 361.000000,98.705269 361.000000,101.000000 
	C360.555542,101.000000 360.111115,101.000000 359.333313,101.000000 
z"/>
<path fill="#000000" opacity="1.000000" stroke="none" 
	d="
M38.468533,101.000000 
	C38.000000,99.181282 37.999985,97.362572 38.000000,95.543854 
	C38.000080,87.627167 39.330963,86.708702 47.374222,88.052826 
	C50.941856,88.649025 52.873928,89.744904 52.049210,93.792519 
	C51.319752,97.372597 52.505527,99.605568 56.754223,99.067291 
	C57.441376,98.980232 58.240097,99.773773 58.993622,100.580139 
	C52.312355,101.000000 45.624710,101.000000 38.468533,101.000000 
M41.000004,94.647507 
	C41.066547,96.070595 41.133091,97.493683 41.201008,98.946236 
	C44.047215,98.893837 47.387512,99.911118 46.903728,95.575317 
	C46.690231,93.661903 45.895718,90.834274 44.556259,90.237816 
	C42.083794,89.136818 40.760956,91.082458 41.000004,94.647507 
z"/>
<path fill="#000000" opacity="1.000000" stroke="none" 
	d="
M389.468567,101.000000 
	C389.000000,99.342903 389.000000,97.685806 389.000000,96.028709 
	C389.000031,87.562012 388.998138,87.605080 397.431793,87.978035 
	C400.560608,88.116402 403.703094,87.927597 406.834351,88.034637 
	C408.144989,88.079445 409.442596,88.505676 410.633606,89.765953 
	C409.585663,89.843956 408.518250,90.088951 407.493256,89.969704 
	C403.947815,89.557205 401.893097,90.661064 401.973297,94.616135 
	C402.046326,98.217842 403.819000,99.364746 407.232666,99.077339 
	C408.445068,98.975273 409.732239,99.762100 410.992645,100.571571 
	C403.979034,101.000000 396.958099,101.000000 389.468567,101.000000 
M398.347778,98.995911 
	C399.073547,96.103668 399.799347,93.211433 400.525604,90.317337 
	C396.903351,90.317337 394.514587,90.317337 392.274261,90.317337 
	C392.274261,93.358643 392.274261,96.076866 392.274261,98.999702 
	C394.163818,98.999702 395.786102,98.999702 398.347778,98.995911 
z"/>
<path fill="#FFFFFF" opacity="1.000000" stroke="none" 
	d="
M244.000000,101.000000 
	C242.611008,101.000000 241.222000,101.000000 239.408508,100.566437 
	C236.470917,99.572426 233.957825,99.011986 231.336456,98.427391 
	C231.336456,95.800598 231.336456,92.961929 231.336456,90.169266 
	C231.992279,90.087898 232.311752,90.018272 232.632324,90.012833 
	C243.999985,89.820267 244.000000,89.821114 244.000000,101.000000 
z"/>
<path fill="#000000" opacity="1.000000" stroke="none" 
	d="
M244.333328,101.000000 
	C244.000000,89.821114 243.999985,89.820267 232.632324,90.012833 
	C232.311752,90.018272 231.992279,90.087898 231.336456,90.169266 
	C231.336456,92.961929 231.336456,95.800598 231.336456,98.427391 
	C233.957825,99.011986 236.470917,99.572426 238.992004,100.566437 
	C235.969406,101.000000 232.938812,101.000000 229.454102,101.000000 
	C228.872574,100.370911 228.800079,99.724655 228.609512,99.115311 
	C225.828674,90.224327 227.804794,87.520210 236.685776,87.984055 
	C238.851776,88.097183 241.028732,88.000313 243.200653,88.000183 
	C245.428391,88.000053 247.656128,88.000153 249.883865,88.000153 
	C243.551163,90.776634 246.614914,96.053375 246.000000,100.546295 
	C245.555557,101.000000 245.111099,101.000000 244.333328,101.000000 
z"/>
<path fill="#000000" opacity="1.000000" stroke="none" 
	d="
M155.333328,101.000000 
	C155.000000,96.896835 155.000000,92.793671 155.000000,88.000183 
	C157.465652,88.000183 159.854111,88.103348 162.229752,87.973045 
	C164.959793,87.823311 166.162476,88.902840 166.028992,91.694313 
	C165.895660,94.482719 165.999908,97.282478 166.000000,100.538635 
	C165.555557,101.000000 165.111099,101.000000 164.333221,100.603615 
	C163.715958,99.305397 163.581116,98.315834 163.113770,97.522049 
	C162.390869,96.294243 161.440796,95.200188 160.587067,94.049416 
	C159.391418,95.541313 158.080994,96.960144 157.060333,98.563438 
	C156.686600,99.150520 157.000031,100.175034 157.000000,101.000000 
	C156.555557,101.000000 156.111099,101.000000 155.333328,101.000000 
z"/>
<path fill="#000000" opacity="1.000000" stroke="none" 
	d="
M319.454102,101.000000 
	C319.000000,96.861633 319.000000,92.723274 319.000000,88.524017 
	C319.598206,88.317337 320.030975,88.046013 320.470978,88.033638 
	C330.940704,87.739281 332.044128,89.272354 329.132629,100.598373 
	C325.969391,101.000000 322.938812,101.000000 319.454102,101.000000 
M326.020538,98.446678 
	C326.439758,95.698051 326.858978,92.949425 327.283752,90.164230 
	C323.572113,89.865807 320.775513,89.425896 320.924957,93.932426 
	C321.029236,97.076561 321.119965,99.650154 326.020538,98.446678 
z"/>
<path fill="#000000" opacity="1.000000" stroke="none" 
	d="
M127.454109,101.000000 
	C127.000000,96.862160 127.000000,92.724327 127.000000,88.523987 
	C127.598198,88.317322 128.030960,88.045998 128.471008,88.033630 
	C138.940643,87.739258 140.044098,89.272430 137.132614,100.598373 
	C133.969406,101.000000 130.938812,101.000000 127.454109,101.000000 
M134.999817,92.666656 
	C134.423813,91.779091 133.883957,90.183044 133.264297,90.151428 
	C131.974182,90.085609 129.649796,90.640274 129.510025,91.308167 
	C129.063828,93.440460 128.865738,95.985962 129.697464,97.876755 
	C130.133713,98.868492 132.919556,98.826691 135.000000,99.339256 
	C135.000000,96.829102 135.000000,95.206696 134.999817,92.666656 
z"/>
<path fill="#000000" opacity="1.000000" stroke="none" 
	d="
M61.454109,101.000000 
	C61.000000,99.833664 61.000004,98.667328 61.000004,97.500992 
	C60.999981,86.799553 61.066845,86.744331 72.085922,89.434441 
	C69.768417,89.746048 67.450912,90.057655 64.230011,90.490723 
	C65.894669,91.512321 66.925056,92.144669 67.651009,92.590179 
	C66.247086,94.284950 64.781364,96.054314 63.119785,98.060112 
	C66.571091,98.974220 68.778168,99.558792 70.992630,100.571678 
	C67.969406,101.000000 64.938812,101.000000 61.454109,101.000000 
z"/>
<path fill="#000000" opacity="1.000000" stroke="none" 
	d="
M217.449982,101.000000 
	C216.671997,97.469978 216.243286,93.944077 216.098801,90.406563 
	C216.068985,89.676857 217.055374,88.294724 217.646881,88.252907 
	C220.738892,88.034317 223.854599,88.150856 226.962067,88.150856 
	C226.982971,88.635300 227.003860,89.119751 227.024765,89.604195 
	C224.351669,89.861679 221.678574,90.119156 219.005478,90.376640 
	C218.983643,90.673630 218.961823,90.970627 218.939987,91.267616 
	C220.554291,91.833542 222.168594,92.399467 223.782883,92.965385 
	C220.687531,93.913307 217.883072,94.556175 219.150879,98.332001 
	C221.608948,98.983383 223.797089,99.563232 225.992615,100.571541 
	C223.299988,101.000000 220.599976,101.000000 217.449982,101.000000 
z"/>
<path fill="#000000" opacity="1.000000" stroke="none" 
	d="
M139.449982,101.000000 
	C139.000000,96.876671 139.000000,92.753342 139.000000,88.400772 
	C142.410522,88.400772 145.654236,88.400772 148.897934,88.400772 
	C148.951813,88.791397 149.005676,89.182030 149.059555,89.572655 
	C147.055344,89.829735 145.051147,90.086815 141.777908,90.506676 
	C143.957291,91.656219 145.020798,92.217186 146.211792,92.845406 
	C144.296829,94.214676 142.652344,95.390556 141.007843,96.566429 
	C143.053314,97.391800 145.116989,98.176094 147.132507,99.069061 
	C147.693756,99.317726 148.112564,99.887924 148.298355,100.655304 
	C145.299988,101.000000 142.599976,101.000000 139.449982,101.000000 
z"/>
<path fill="#000000" opacity="1.000000" stroke="none" 
	d="
M74.454109,101.000000 
	C73.957474,100.505226 73.871696,100.009781 73.879333,99.515785 
	C73.935417,95.888222 72.886444,91.590256 74.500847,88.885300 
	C75.468178,87.264519 80.608162,88.134109 83.872704,87.884377 
	C83.940666,88.319656 84.008629,88.754929 84.076591,89.190208 
	C83.316780,89.459610 82.561501,89.944260 81.796356,89.960381 
	C78.822205,90.023018 75.949127,89.312729 75.840416,94.209488 
	C75.731888,99.097725 78.231659,99.214729 81.721840,99.061249 
	C82.459167,99.028824 83.230362,99.766380 83.992981,100.574585 
	C80.969406,101.000000 77.938812,101.000000 74.454109,101.000000 
z"/>
<path fill="#000000" opacity="1.000000" stroke="none" 
	d="
M27.454109,101.000000 
	C26.671867,97.473701 26.209444,93.950798 26.120022,90.418457 
	C26.100277,89.638557 27.344610,88.206566 28.104376,88.136810 
	C31.040583,87.867210 34.016239,88.027298 36.977196,88.027298 
	C36.983063,88.529274 36.988930,89.031242 36.994797,89.533218 
	C34.545399,89.533218 32.096001,89.533218 29.322029,89.533218 
	C29.322029,92.939461 29.322029,95.790504 29.322029,98.424339 
	C31.958612,99.012268 34.471306,99.572578 36.992001,100.566437 
	C33.969406,101.000000 30.938814,101.000000 27.454109,101.000000 
z"/>
<path fill="#FFFFFF" opacity="1.000000" stroke="none" 
	d="
M333.437500,101.000000 
	C333.000031,99.012131 333.046112,97.022964 332.990265,95.036667 
	C332.881805,91.180031 334.291931,89.107315 338.502472,90.205154 
	C338.994507,93.499161 339.491272,96.824776 339.994019,100.575195 
	C337.958344,101.000000 335.916656,101.000000 333.437500,101.000000 
z"/>
<path fill="#FFFFFF" opacity="1.000000" stroke="none" 
	d="
M428.437500,101.000000 
	C428.333313,98.785103 428.829437,96.579353 428.954437,94.352768 
	C429.080750,92.102760 428.950928,89.501755 432.096252,90.184555 
	C433.293030,90.444351 434.493958,92.636871 434.885406,94.156555 
	C435.365723,96.021317 434.999969,98.104027 435.000000,100.546257 
	C432.958344,101.000000 430.916656,101.000000 428.437500,101.000000 
z"/>
<path fill="#000000" opacity="1.000000" stroke="none" 
	d="
M253.449982,101.000000 
	C252.555466,96.714584 252.110931,92.429169 251.666382,88.143753 
	C252.312180,88.087379 252.957977,88.031006 253.603760,87.974632 
	C253.735886,90.334496 253.530365,92.783173 254.119476,95.022835 
	C254.508743,96.502785 256.039276,97.682541 257.058838,98.996696 
	C258.039185,97.641830 259.412445,96.414391 259.903351,94.900787 
	C260.559784,92.876755 260.532074,90.630821 260.798157,88.480179 
	C261.198761,88.504967 261.599396,88.529755 262.000000,88.554543 
	C262.000000,92.394875 262.000000,96.235207 262.000000,100.537766 
	C259.299988,101.000000 256.599976,101.000000 253.449982,101.000000 
z"/>
<path fill="#000000" opacity="1.000000" stroke="none" 
	d="
M307.454102,101.000000 
	C307.003204,97.201286 307.003326,93.402565 307.015228,89.603874 
	C307.016235,89.284912 307.096252,88.966194 307.176361,88.376205 
	C310.403015,88.376205 313.657593,88.376205 316.912170,88.376205 
	C316.961548,88.691971 317.010925,89.007736 317.060303,89.323509 
	C316.139130,89.548912 315.183899,90.056763 314.302673,89.950623 
	C310.575043,89.501640 309.136108,91.057083 308.919525,94.775635 
	C308.666870,99.114761 311.170288,99.133980 314.242554,99.062370 
	C315.148102,99.041252 316.071045,99.766464 316.993011,100.574829 
	C313.969391,101.000000 310.938812,101.000000 307.454102,101.000000 
z"/>
<path fill="#000000" opacity="1.000000" stroke="none" 
	d="
M295.333313,101.000000 
	C294.942322,98.016838 295.849976,94.842941 291.904388,93.096458 
	C291.029510,92.709190 291.257965,89.829315 290.834503,87.205727 
	C293.088531,89.412163 294.378754,91.696404 295.737488,91.737938 
	C297.316040,91.786186 298.954712,89.867889 300.989685,88.524223 
	C302.372894,90.202477 303.234833,92.458214 300.290680,93.855591 
	C297.287354,95.281052 296.739807,97.370583 297.000000,100.590912 
	C296.555542,101.000000 296.111115,101.000000 295.333313,101.000000 
z"/>
<path fill="#000000" opacity="1.000000" stroke="none" 
	d="
M378.454102,101.000000 
	C378.000000,96.890572 378.000000,92.781143 378.000000,88.671715 
	C378.176910,88.646141 378.353821,88.620567 378.530731,88.594994 
	C379.039642,92.039528 379.548553,95.484062 380.071655,99.024773 
	C388.786346,98.956573 384.928894,92.332993 386.482422,87.858833 
	C389.311096,92.024506 387.378937,96.247993 388.000000,100.540009 
	C384.969391,101.000000 381.938812,101.000000 378.454102,101.000000 
z"/>
<path fill="#FFFFFF" opacity="1.000000" stroke="none" 
	d="
M367.437500,101.000000 
	C367.708344,98.674599 367.712250,95.307472 369.277374,94.249054 
	C372.187836,92.280876 373.979187,94.612679 374.000000,100.569046 
	C371.958344,101.000000 369.916656,101.000000 367.437500,101.000000 
z"/>
<path fill="#FFFFFF" opacity="1.000000" stroke="none" 
	d="
M361.416656,101.000000 
	C361.000000,98.705269 360.689789,96.353668 361.096802,94.133553 
	C361.430878,92.311363 362.617615,90.645493 363.426392,88.910332 
	C363.822266,89.089470 364.218170,89.268616 364.614044,89.447754 
	C364.988586,93.031822 365.363129,96.615883 365.868835,100.599976 
	C364.611115,101.000000 363.222198,101.000000 361.416656,101.000000 
z"/>
<path fill="#000000" opacity="1.000000" stroke="none" 
	d="
M89.333328,101.000000 
	C89.000000,99.676491 89.217743,98.308128 88.956215,97.038490 
	C88.347626,94.083923 87.508102,91.176918 86.758461,88.236145 
	C88.458023,88.236145 91.478455,88.236145 95.199226,88.236145 
	C89.360390,90.957924 91.260979,95.843727 91.000000,100.548462 
	C90.555557,101.000000 90.111107,101.000000 89.333328,101.000000 
z"/>
<path fill="#FFFFFF" opacity="1.000000" stroke="none" 
	d="
M169.437500,101.000000 
	C169.350998,98.801468 169.701996,96.602943 170.091095,94.165718 
	C175.102692,93.407173 175.829300,96.518013 176.000000,100.592705 
	C173.958328,101.000000 171.916672,101.000000 169.437500,101.000000 
z"/>
<path fill="#FFFFFF" opacity="1.000000" stroke="none" 
	d="
M157.437500,101.000000 
	C157.000031,100.175034 156.686600,99.150520 157.060333,98.563438 
	C158.080994,96.960144 159.391418,95.541313 160.587067,94.049416 
	C161.440796,95.200188 162.390869,96.294243 163.113770,97.522049 
	C163.581116,98.315834 163.715958,99.305397 163.999908,100.603615 
	C161.958328,101.000000 159.916672,101.000000 157.437500,101.000000 
z"/>
<path fill="#FFFFFF" opacity="1.000000" stroke="none" 
	d="
M277.428467,101.000000 
	C277.000000,100.674576 276.942108,100.336662 277.009247,100.025734 
	C277.488098,97.808090 275.497955,94.200775 279.818146,94.065186 
	C284.582581,93.915665 282.506012,97.803101 283.000000,100.572136 
	C281.285645,101.000000 279.571289,101.000000 277.428467,101.000000 
z"/>
<path fill="#FFFFFF" opacity="1.000000" stroke="none" 
	d="
M266.428467,101.000000 
	C266.000000,100.669273 265.887024,100.282982 266.018005,100.016663 
	C267.010223,97.999046 268.050201,96.004951 269.075317,94.003525 
	C270.050201,96.055161 271.025116,98.106796 272.000000,100.579216 
	C270.285645,101.000000 268.571289,101.000000 266.428467,101.000000 
z"/>
<path fill="#FFFFFF" opacity="1.000000" stroke="none" 
	d="
M204.399994,101.000000 
	C204.333344,98.608673 204.545288,96.191467 205.047409,93.836128 
	C205.330063,92.510216 206.091415,91.286346 206.637115,90.016510 
	C207.091415,91.208496 207.816818,92.373207 207.940033,93.598465 
	C208.155228,95.738464 208.000000,97.915710 208.000000,100.538673 
	C206.933334,101.000000 205.866653,101.000000 204.399994,101.000000 
z"/>
<path fill="#FFFFFF" opacity="1.000000" stroke="none" 
	d="
M360.983795,29.420765 
	C360.998657,36.034840 360.864594,42.186195 361.054230,48.327549 
	C361.156128,51.627468 360.329163,53.158165 356.642365,53.070911 
	C347.509766,52.854771 338.366669,52.892094 329.231934,53.057129 
	C325.937958,53.116638 324.837982,51.927715 324.946960,48.700783 
	C325.137451,43.058445 325.190399,37.396221 324.929504,31.759523 
	C324.769592,28.304317 326.249176,27.009918 329.392853,27.005442 
	C338.527649,26.992435 347.664001,26.918564 356.795654,27.088501 
	C358.198059,27.114599 359.578827,28.303020 360.983795,29.420765 
z"/>
<path fill="#FFFFFF" opacity="1.000000" stroke="none" 
	d="
M180.726349,91.661163 
	C182.610123,91.032860 184.252579,90.751648 185.895035,90.470444 
	C186.008957,92.757812 186.339310,95.068176 186.100281,97.318054 
	C186.031677,97.963791 183.660355,99.080490 183.465256,98.881683 
	C182.142517,97.533905 180.998566,95.959488 180.071640,94.304413 
	C179.778244,93.780525 180.323547,92.786919 180.726349,91.661163 
z"/>
<path fill="#FFFFFF" opacity="1.000000" stroke="none" 
	d="
M118.999916,95.867142 
	C118.416107,97.209755 117.825966,98.849640 117.249931,98.844696 
	C115.913414,98.833229 113.652161,98.277435 113.441338,97.492348 
	C112.973732,95.751015 113.016891,93.454247 113.842789,91.916023 
	C114.504982,90.682663 116.626625,90.232895 118.999992,88.948776 
	C118.999992,91.877373 118.999992,93.647270 118.999916,95.867142 
z"/>
<path fill="#FFFFFF" opacity="1.000000" stroke="none" 
	d="
M418.000061,94.224258 
	C419.051086,92.515625 420.102081,91.259445 421.153076,90.003273 
	C422.102020,91.362801 423.364960,92.609917 423.904175,94.116112 
	C424.366272,95.406853 423.999878,96.994194 423.999878,98.793434 
	C422.088165,98.879463 420.360168,98.957222 418.243988,99.052452 
	C418.156769,97.488235 418.078369,96.082481 418.000061,94.224258 
z"/>
<path fill="#FFFFFF" opacity="1.000000" stroke="none" 
	d="
M342.213165,93.628052 
	C344.149261,93.495384 346.001892,93.477760 347.617981,94.087311 
	C348.881409,94.563835 349.851318,95.818436 350.951660,96.727310 
	C349.915161,97.484581 348.968292,98.651886 347.821075,98.902657 
	C346.116913,99.275162 344.271027,98.999123 342.027771,98.999123 
	C342.027771,97.172325 342.027771,95.592850 342.213165,93.628052 
z"/>
<path fill="#FFFFFF" opacity="1.000000" stroke="none" 
	d="
M41.000053,94.200729 
	C40.760956,91.082458 42.083794,89.136818 44.556259,90.237816 
	C45.895718,90.834274 46.690231,93.661903 46.903728,95.575317 
	C47.387512,99.911118 44.047215,98.893837 41.201008,98.946236 
	C41.133091,97.493683 41.066547,96.070595 41.000053,94.200729 
z"/>
<path fill="#FFFFFF" opacity="1.000000" stroke="none" 
	d="
M397.878082,98.997803 
	C395.786102,98.999702 394.163818,98.999702 392.274261,98.999702 
	C392.274261,96.076866 392.274261,93.358643 392.274261,90.317337 
	C394.514587,90.317337 396.903351,90.317337 400.525604,90.317337 
	C399.799347,93.211433 399.073547,96.103668 397.878082,98.997803 
z"/>
<path fill="#FFFFFF" opacity="1.000000" stroke="none" 
	d="
M325.669006,98.701431 
	C321.119965,99.650154 321.029236,97.076561 320.924957,93.932426 
	C320.775513,89.425896 323.572113,89.865807 327.283752,90.164230 
	C326.858978,92.949425 326.439758,95.698051 325.669006,98.701431 
z"/>
<path fill="#FFFFFF" opacity="1.000000" stroke="none" 
	d="
M134.999908,93.125473 
	C135.000000,95.206696 135.000000,96.829102 135.000000,99.339256 
	C132.919556,98.826691 130.133713,98.868492 129.697464,97.876755 
	C128.865738,95.985962 129.063828,93.440460 129.510025,91.308167 
	C129.649796,90.640274 131.974182,90.085609 133.264297,90.151428 
	C133.883957,90.183044 134.423813,91.779091 134.999908,93.125473 
z"/>
</svg>